<?xml version="1.0" standalone="no"?>
<!DOCTYPE svg PUBLIC "-//W3C//DTD SVG 20010904//EN"
 "http://www.w3.org/TR/2001/REC-SVG-20010904/DTD/svg10.dtd">
<svg version="1.0" xmlns="http://www.w3.org/2000/svg"
 width="748.000000pt" height="133.000000pt" viewBox="0 0 748.000000 133.000000"
 preserveAspectRatio="xMidYMid meet">
<metadata>
Created by potrace 1.16, written by Peter Selinger 2001-2019
</metadata>
<g transform="translate(0.000000,133.000000) scale(0.100000,-0.100000)"
fill="#000000" stroke="none">
<path d="M1502 863 c4 -421 5 -452 25 -510 11 -34 32 -82 47 -106 55 -95 180
-180 304 -206 79 -16 501 -14 583 3 89 19 181 67 239 125 151 151 171 442 45
627 -43 63 -96 106 -176 144 -94 44 -168 52 -446 48 -235 -4 -251 -5 -313 -29
-36 -14 -83 -37 -105 -52 l-40 -27 -5 196 c-5 191 -6 196 -29 215 -16 13 -39
19 -78 19 l-55 0 4 -447z m952 -37 c144 -52 217 -159 217 -316 0 -153 -75
-262 -216 -316 -44 -17 -79 -19 -290 -19 -226 0 -243 1 -296 23 -80 32 -133
81 -171 160 -30 60 -33 75 -33 157 0 71 5 100 21 136 44 95 136 166 244 188
25 6 142 9 260 7 178 -2 223 -5 264 -20z"/>
<path d="M2972 853 c4 -516 3 -511 81 -625 48 -70 130 -132 224 -169 54 -22
75 -23 316 -27 211 -3 271 -1 330 12 99 22 167 56 228 113 96 90 139 197 139
347 0 158 -43 269 -140 360 -114 107 -214 129 -555 123 -276 -4 -305 -9 -407
-71 l-57 -34 -3 190 -3 190 -28 24 c-22 18 -40 24 -78 24 l-50 0 3 -457z m900
-14 c109 -23 195 -87 240 -178 19 -39 23 -62 23 -151 0 -95 -3 -110 -27 -155
-35 -67 -90 -118 -163 -152 -59 -27 -64 -28 -270 -31 -227 -4 -299 4 -375 43
-59 30 -113 88 -142 150 -33 72 -33 217 1 292 40 90 136 161 244 182 64 13
408 13 469 0z"/>
<path d="M5924 1278 c-40 -10 -59 -52 -51 -111 7 -49 35 -77 79 -77 43 0 65
15 78 56 29 88 -23 154 -106 132z"/>
<path d="M420 980 c-73 -11 -165 -46 -216 -81 -273 -186 -253 -654 35 -808
109 -58 159 -65 436 -66 208 0 261 3 314 18 84 23 150 60 206 115 25 24 45 42
46 40 0 -1 8 -32 17 -67 20 -76 44 -97 120 -107 47 -6 52 -5 52 12 0 11 -26
159 -59 329 -49 259 -63 320 -90 374 -57 111 -155 190 -286 229 -59 17 -485
26 -575 12z m501 -146 c86 -19 154 -63 197 -128 123 -185 55 -427 -144 -507
-57 -23 -69 -24 -304 -24 -231 0 -248 1 -301 23 -109 44 -177 129 -199 250
-19 108 9 209 81 287 86 94 156 113 412 114 138 1 207 -3 258 -15z"/>
<path d="M4256 963 c62 -96 652 -894 680 -921 41 -39 77 -41 124 -10 19 14
175 219 371 488 l338 465 -70 3 c-118 5 -108 15 -414 -416 -148 -210 -272
-382 -275 -382 -3 0 -104 140 -225 312 -319 451 -321 454 -359 472 -22 10 -61
16 -111 16 l-77 0 18 -27z"/>
<path d="M5882 537 l3 -457 25 -24 c16 -16 42 -27 73 -31 l48 -7 -3 461 c-3
457 -3 461 -25 482 -14 15 -38 23 -72 27 l-52 5 3 -456z"/>
<path d="M6551 975 c-94 -21 -168 -61 -231 -124 -89 -90 -130 -196 -130 -341
0 -151 45 -265 138 -353 61 -56 112 -83 209 -108 69 -17 113 -19 475 -19 l398
0 0 25 c0 48 -26 92 -60 104 -22 7 -144 11 -369 11 -363 0 -401 4 -485 54 -58
34 -111 97 -130 154 -9 25 -16 49 -16 54 0 4 193 8 430 8 404 0 432 1 483 20
104 39 166 134 167 255 0 115 -58 208 -159 254 -51 23 -623 27 -720 6z m646
-144 c53 -25 76 -60 76 -117 0 -53 -24 -91 -74 -116 -31 -16 -73 -18 -442 -18
l-407 0 6 28 c26 112 131 207 255 231 24 5 157 9 294 10 225 0 254 -1 292 -18z"/>
</g>
</svg>
