<?xml version="1.0" standalone="no"?>
<!DOCTYPE svg PUBLIC "-//W3C//DTD SVG 20010904//EN"
 "http://www.w3.org/TR/2001/REC-SVG-20010904/DTD/svg10.dtd">
<svg version="1.0" xmlns="http://www.w3.org/2000/svg"
 width="803.000000pt" height="230.000000pt" viewBox="0 0 803.000000 230.000000"
 preserveAspectRatio="xMidYMid meet">
<metadata>
Created by potrace 1.16, written by Peter Selinger 2001-2019
</metadata>
<g transform="translate(0.000000,230.000000) scale(0.100000,-0.100000)"
fill="#000000" stroke="none">
<path d="M961 2264 c-175 -29 -360 -109 -502 -216 -523 -394 -582 -1136 -127
-1600 64 -64 194 -168 212 -168 3 0 6 146 6 325 l0 325 -60 0 -60 0 0 -212 -1
-213 -58 63 c-94 103 -170 248 -212 410 -28 105 -30 296 -5 407 44 192 122
331 271 480 118 118 203 175 345 232 505 205 1097 -14 1331 -492 71 -146 93
-247 93 -420 -1 -170 -20 -252 -93 -400 -47 -95 -124 -208 -170 -249 l-21 -19
0 206 0 207 -58 0 -59 0 -7 -321 c-3 -177 -4 -324 -2 -327 10 -9 142 93 212
164 221 223 332 532 303 844 -46 492 -431 892 -939 975 -115 18 -285 18 -399
-1z"/>
<path d="M4627 2224 c-3 -4 -32 -9 -64 -13 -49 -5 -58 -9 -61 -27 -2 -16 4
-24 26 -32 27 -9 29 -14 35 -78 4 -38 7 -202 7 -365 0 -311 0 -312 -45 -321
-12 -2 -21 -13 -23 -26 -3 -22 -2 -22 117 -22 115 0 121 1 121 20 0 13 -10 24
-25 30 l-25 10 2 197 3 197 34 23 c22 15 49 23 77 23 72 0 75 -12 72 -246 l-3
-199 -27 -3 c-21 -3 -28 -9 -28 -25 0 -22 3 -23 125 -23 123 0 125 0 125 22 0
17 -7 23 -27 26 l-28 3 -5 210 c-6 232 -16 272 -71 300 -53 28 -150 15 -211
-27 -14 -10 -29 -18 -32 -18 -3 0 -6 83 -6 185 l0 185 -28 0 c-16 0 -31 -3
-35 -6z"/>
<path d="M2710 2154 c0 -18 5 -24 23 -24 46 0 47 -4 47 -365 0 -361 -1 -365
-47 -365 -18 0 -23 -6 -23 -26 l0 -26 233 4 c252 3 264 6 318 65 43 45 59 87
59 150 -1 105 -63 191 -156 214 l-46 12 33 14 c105 44 149 169 97 273 -18 34
-35 51 -73 70 -48 24 -56 25 -257 26 l-208 2 0 -24z m363 -51 c41 -21 71 -93
64 -154 -12 -103 -56 -139 -167 -139 l-61 0 6 138 c4 75 8 143 11 150 10 32
88 35 147 5z m27 -375 c113 -57 111 -256 -3 -312 -43 -20 -152 -25 -170 -7 -8
8 -13 70 -15 176 l-3 165 73 0 c57 0 84 -5 118 -22z"/>
<path d="M5650 2120 c-42 -42 -15 -114 47 -126 26 -5 37 -1 57 19 51 51 22
127 -49 127 -22 0 -43 -8 -55 -20z"/>
<path d="M981 1914 c-91 -68 -167 -126 -169 -129 -5 -5 8 -26 41 -64 l27 -33
136 101 c74 56 140 101 146 101 5 0 68 -43 140 -95 72 -52 136 -95 142 -95 13
1 66 68 66 84 -1 14 -334 256 -352 255 -7 0 -87 -56 -177 -125z"/>
<path d="M3603 1929 c-57 -13 -125 -75 -153 -141 -31 -70 -38 -194 -17 -269
20 -66 76 -135 131 -160 54 -24 148 -24 201 0 95 43 149 147 148 286 -1 147
-62 249 -165 280 -57 17 -83 17 -145 4z m126 -73 c33 -35 51 -108 51 -207 0
-124 -15 -186 -55 -226 -64 -64 -126 -35 -160 73 -14 45 -17 78 -13 163 8 157
42 221 116 221 28 0 45 -7 61 -24z"/>
<path d="M4124 1912 c-85 -40 -128 -136 -128 -287 -1 -94 1 -105 31 -165 47
-95 81 -115 194 -115 81 0 90 2 131 30 23 17 52 48 63 68 19 36 19 39 2 51
-15 12 -23 8 -61 -30 -38 -39 -48 -44 -89 -44 -79 0 -135 68 -152 183 l-6 47
162 0 162 0 -7 67 c-9 87 -34 143 -81 179 -32 24 -49 29 -109 32 -54 2 -81 -2
-112 -16z m135 -48 c29 -21 51 -72 51 -119 l0 -35 -95 0 c-106 0 -103 -3 -84
76 12 46 56 94 88 94 9 0 27 -7 40 -16z"/>
<path d="M5237 1919 c-10 -6 -40 -14 -65 -18 -37 -5 -48 -11 -50 -26 -2 -16 5
-23 30 -30 l33 -10 3 -214 c3 -228 2 -231 -45 -231 -17 0 -23 -6 -23 -22 0
-23 2 -23 135 -23 133 0 135 0 135 23 0 17 -6 22 -28 22 -48 0 -52 13 -52 164
0 149 9 200 39 238 19 23 20 23 49 6 39 -23 57 -23 82 2 27 27 28 95 1 110
-49 26 -110 3 -151 -58 l-25 -36 -3 57 c-3 51 -5 57 -25 57 -12 0 -30 -5 -40
-11z"/>
<path d="M5675 1909 c-27 -10 -60 -18 -72 -19 -18 0 -23 -6 -23 -25 0 -20 5
-25 25 -25 14 0 29 -8 35 -19 6 -12 10 -97 10 -206 0 -109 -4 -194 -10 -206
-7 -12 -21 -19 -40 -19 -25 0 -30 -4 -30 -24 l0 -25 130 0 130 0 0 24 c0 19
-6 24 -32 27 l-33 3 -8 125 c-4 69 -5 189 -2 268 7 162 12 155 -80 121z"/>
<path d="M5985 1915 c-16 -8 -45 -14 -62 -15 -28 0 -33 -4 -33 -24 0 -18 7
-25 30 -30 l30 -6 -2 -217 -3 -218 -32 -10 c-25 -7 -33 -15 -33 -33 0 -18 4
-23 16 -18 9 3 65 6 125 6 109 0 109 0 109 24 0 19 -6 25 -27 28 l-28 3 0 193
c0 191 0 194 23 213 13 10 42 24 64 31 33 10 45 9 67 -3 l26 -15 3 -208 2
-208 -30 -11 c-20 -8 -30 -18 -30 -32 0 -19 6 -20 120 -20 118 -1 120 0 120
22 0 15 -6 23 -18 23 -39 0 -42 16 -42 240 0 179 -3 219 -16 238 -42 60 -147
70 -238 23 l-56 -30 0 35 c0 31 -3 34 -27 33 -16 0 -41 -7 -58 -14z"/>
<path d="M6667 1916 c-48 -17 -74 -41 -98 -88 -44 -87 -33 -174 30 -231 l38
-34 -27 -17 c-15 -9 -42 -32 -59 -51 -45 -52 -41 -94 11 -121 l30 -16 -30 -18
c-43 -26 -62 -59 -62 -106 0 -77 79 -119 220 -118 110 1 182 28 238 88 72 78
77 170 10 217 -24 18 -52 23 -156 30 -187 13 -197 17 -146 70 24 25 31 27 80
22 44 -5 62 -1 107 21 94 46 136 140 104 234 l-15 42 45 0 c37 0 44 3 39 16
-3 9 -6 20 -6 25 0 5 -28 9 -63 9 -43 0 -75 6 -102 20 -46 24 -131 26 -188 6z
m135 -53 c40 -46 50 -163 20 -223 -29 -60 -108 -67 -135 -12 -38 73 -27 195
20 232 32 25 75 26 95 3z m35 -529 c43 -4 66 -11 79 -25 16 -18 16 -22 1 -53
-11 -24 -31 -42 -71 -61 -142 -69 -297 21 -211 123 28 33 13 32 202 16z"/>
<path d="M7283 1919 c-131 -24 -196 -126 -197 -309 0 -102 20 -167 67 -219 74
-80 237 -82 320 -3 34 32 60 79 52 92 -11 17 -43 11 -59 -11 -24 -35 -68 -59
-107 -59 -78 0 -140 76 -147 182 l-4 58 162 0 163 0 -6 71 c-12 147 -107 223
-244 198z m84 -72 c13 -11 25 -36 28 -56 3 -20 8 -48 10 -63 l5 -28 -102 0
-101 0 6 45 c9 60 31 101 65 119 31 17 58 12 89 -17z"/>
<path d="M7700 1905 c-19 -7 -50 -14 -67 -14 -27 -1 -33 -5 -33 -24 0 -17 8
-25 33 -32 l32 -10 0 -215 0 -214 -32 -10 c-22 -6 -33 -15 -33 -27 0 -18 10
-19 135 -19 124 0 135 1 135 18 0 13 -11 21 -37 28 l-38 9 -3 160 c-3 170 2
197 44 236 22 21 25 21 42 6 40 -37 102 -6 105 52 2 25 -4 38 -24 53 -45 34
-109 6 -161 -72 -17 -25 -17 -25 -17 33 -1 53 -3 57 -23 56 -13 0 -39 -7 -58
-14z"/>
<path d="M880 881 l0 -748 60 -10 60 -10 0 759 0 758 -60 0 -60 0 0 -749z"/>
<path d="M1110 865 l0 -766 58 3 57 3 3 763 2 762 -60 0 -60 0 0 -765z"/>
<path d="M1340 872 l0 -759 55 10 55 10 0 749 0 748 -55 0 -55 0 0 -758z"/>
<path d="M4880 1139 c-19 -5 -52 -11 -73 -14 -29 -5 -37 -10 -35 -23 2 -9 13
-18 25 -20 12 -2 26 -9 32 -16 8 -9 10 -128 9 -382 l-3 -369 -33 -3 c-28 -3
-33 -7 -30 -25 2 -15 10 -22 26 -21 12 0 67 1 122 2 92 2 100 4 100 21 0 14
-8 21 -27 23 l-28 3 -3 418 -2 417 -23 -1 c-12 -1 -38 -5 -57 -10z"/>
<path d="M5195 1140 c-11 -5 -41 -12 -67 -15 -38 -5 -48 -10 -48 -25 0 -12 10
-21 29 -25 18 -4 31 -14 35 -28 8 -29 7 -223 -1 -501 l-6 -227 -29 -6 c-20 -4
-28 -11 -28 -27 0 -20 5 -21 120 -23 l120 -3 0 25 c0 17 -6 25 -18 25 -39 0
-42 18 -42 212 l0 187 43 25 c62 36 98 42 126 19 22 -18 23 -25 28 -221 l6
-203 -31 -11 c-22 -8 -32 -19 -32 -33 0 -19 6 -20 120 -22 120 -1 120 -1 120
22 0 18 -6 24 -27 27 l-28 3 -6 210 c-6 234 -15 272 -68 299 -49 26 -128 20
-188 -13 l-53 -29 -1 31 c-1 18 0 101 1 185 l2 152 -29 -1 c-15 0 -37 -4 -48
-9z"/>
<path d="M2720 1078 c0 -15 11 -29 29 -39 39 -22 41 -43 41 -391 0 -285 -1
-299 -20 -318 -11 -11 -29 -20 -40 -20 -14 0 -20 -7 -20 -22 0 -23 1 -23 137
-23 130 1 138 2 141 21 2 15 -5 22 -30 29 l-33 10 -6 115 c-9 155 -9 483 -1
544 6 44 11 51 37 59 39 12 38 12 30 36 -6 20 -14 21 -136 21 -127 0 -129 0
-129 -22z"/>
<path d="M6322 1059 c-45 -17 -58 -97 -20 -123 73 -51 163 30 113 101 -16 23
-61 33 -93 22z"/>
<path d="M650 574 l0 -355 55 -25 c31 -13 58 -24 60 -24 3 0 5 171 5 380 l0
380 -60 0 -60 0 0 -356z"/>
<path d="M1560 549 c0 -359 1 -381 18 -375 9 4 36 14 59 24 l43 17 0 358 0
357 -60 0 -60 0 0 -381z"/>
<path d="M3150 845 c-19 -7 -50 -14 -67 -14 -28 -1 -33 -5 -33 -26 0 -18 5
-25 19 -25 45 0 51 -22 50 -178 -1 -81 -4 -174 -8 -206 -6 -57 -7 -60 -38 -68
-27 -7 -33 -14 -33 -34 0 -20 4 -25 16 -20 9 3 67 6 130 6 103 0 114 2 114 18
0 10 -12 22 -29 28 l-28 11 -5 184 c-3 101 -4 188 -1 194 14 34 97 64 146 51
41 -10 47 -43 47 -245 0 -202 0 -201 -51 -201 -13 0 -19 -7 -19 -23 0 -23 1
-23 125 -22 113 0 125 2 125 18 0 10 -11 22 -24 26 -31 12 -36 46 -36 261 0
119 -4 183 -13 199 -20 40 -62 64 -121 69 -52 4 -73 -2 -178 -56 -5 -2 -8 12
-8 32 0 31 -3 36 -22 35 -13 0 -39 -7 -58 -14z"/>
<path d="M3826 834 c-51 -19 -75 -40 -97 -89 -37 -79 -19 -179 39 -226 l30
-24 -49 -45 c-65 -59 -74 -99 -31 -138 l30 -27 -35 -30 c-28 -24 -36 -39 -40
-78 -5 -43 -3 -51 22 -77 46 -49 100 -63 212 -58 81 3 107 9 149 30 121 63
173 190 106 258 -38 38 -88 50 -204 50 -140 0 -175 18 -124 63 19 17 37 21 92
22 85 1 143 28 180 85 34 51 42 121 21 173 l-16 37 45 0 c42 0 44 1 44 30 l0
30 -72 0 c-40 0 -91 7 -113 15 -51 18 -139 18 -189 -1z m170 -84 c17 -48 17
-144 -1 -185 -26 -63 -101 -69 -136 -11 -22 37 -26 159 -7 202 30 64 120 60
144 -6z m67 -496 c60 -14 51 -84 -16 -124 -85 -52 -193 -47 -241 11 -31 37
-32 54 -5 98 l20 34 107 -7 c59 -3 120 -9 135 -12z"/>
<path d="M4417 840 c-90 -27 -147 -122 -155 -258 -12 -215 64 -322 228 -322
88 0 137 24 178 85 38 58 39 61 8 67 -18 4 -30 -3 -50 -28 -28 -36 -84 -59
-121 -50 -62 16 -108 85 -121 185 l-7 51 163 0 163 0 -6 64 c-6 69 -27 128
-55 160 -42 47 -149 69 -225 46z m125 -67 c21 -18 38 -74 38 -120 l0 -33 -95
0 -95 0 0 35 c0 78 59 153 110 140 14 -4 33 -14 42 -22z"/>
<path d="M5885 841 c-56 -14 -92 -40 -124 -89 -83 -129 -73 -350 19 -442 89
-89 266 -72 333 32 31 48 33 63 12 72 -10 3 -30 -9 -54 -33 -44 -44 -88 -57
-135 -37 -63 26 -106 102 -106 189 l0 37 155 0 155 0 0 48 c0 122 -53 200
-150 221 -56 12 -62 12 -105 2z m107 -82 c11 -14 22 -50 25 -82 l6 -57 -97 0
c-107 0 -106 -1 -85 75 16 59 55 97 98 93 23 -2 40 -12 53 -29z"/>
<path d="M6335 835 c-16 -8 -47 -14 -67 -15 -33 0 -38 -3 -38 -23 0 -16 9 -26
30 -34 l30 -11 -2 -214 -3 -213 -32 -10 c-22 -6 -33 -15 -33 -27 0 -16 12 -18
130 -18 122 0 130 1 130 19 0 15 -8 21 -32 23 -31 3 -33 6 -40 48 -3 25 -7
145 -7 268 -1 246 2 238 -66 207z"/>
<path d="M6635 825 c-22 -8 -52 -14 -67 -14 -22 -1 -28 -6 -28 -24 0 -16 6
-23 21 -24 12 -1 27 -7 33 -13 14 -14 8 -410 -6 -427 -6 -7 -21 -13 -34 -13
-18 0 -24 -5 -24 -23 0 -22 1 -22 128 -21 104 0 128 3 130 15 2 9 -11 21 -30
30 l-33 14 -3 184 -2 184 27 29 c24 25 76 48 111 48 7 0 24 -11 37 -25 25 -24
25 -25 25 -225 l0 -200 -30 -6 c-22 -5 -30 -12 -30 -28 0 -20 5 -21 126 -23
123 -2 125 -2 122 20 -2 13 -12 23 -28 27 l-25 6 -3 195 -2 194 42 28 c49 32
96 35 129 8 24 -19 24 -21 24 -218 l0 -198 -32 -14 c-20 -9 -33 -22 -33 -33 0
-16 11 -18 130 -18 123 0 130 1 130 20 0 14 -10 22 -32 28 l-33 8 -5 220 c-5
231 -9 248 -55 278 -59 39 -184 25 -249 -27 l-28 -23 -28 27 c-57 58 -171 59
-253 3 l-37 -25 0 36 c0 40 -14 43 -85 20z"/>
</g>
</svg>
