<?xml version="1.0" encoding="utf-8"?>
<!-- Generator: Adobe Illustrator 21.1.0, SVG Export Plug-In . SVG Version: 6.00 Build 0)  -->
<svg version="1.1" id="Layer_1" xmlns="http://www.w3.org/2000/svg" xmlns:xlink="http://www.w3.org/1999/xlink" x="0px" y="0px"
	 viewBox="0 0 602 104" style="enable-background:new 0 0 602 104;" xml:space="preserve">
<style type="text/css">
	.st0{fill:#050546;}
</style>
<g>
	<path class="st0" d="M0,60.5c0-26.1,22.4-43.2,64.1-43.2c21.9,0,42,3.2,61,8.1v18.2l-20.4-4.4c-11.1-2.5-25.8-4.4-40.3-4.4
		c-28.5,0-43.8,8.2-43.8,26.1c0,16.9,13.9,26.2,46.5,26.2c16.1,0,30.1-2.2,40.3-5.7V66.9H50.8V52.1l74.4-0.2V95
		c-16.8,5.2-38,9-58.1,9C21.1,104,0,87.3,0,60.5z"/>
	<path class="st0" d="M305.6,74.3c0-18.5,10.7-29.4,28-29.4c11.2,0,23.2,3.7,48.6,14.5V18.7h19.3v83.8h-18.7c0-6.3,0.1-8.7,0.4-13.7
		c-28.8,11.9-38.8,14.9-49.3,14.9C316.3,103.8,305.6,92.9,305.6,74.3z M367.9,80.7l16.4-6.4l-16.4-6.4c-15.2-5.8-21.9-7.8-27.9-7.8
		c-10.3,0-15.4,4.9-15.4,14.2c0,9.4,5,14.2,15.4,14.2C346,88.5,352.8,86.6,367.9,80.7z"/>
	<path class="st0" d="M501.1,77.4h-70.2c1.8,7.9,11.4,11.9,28.6,11.9c8.9,0,16.4-1.2,27.3-3.7l12.9-3.1V98
		c-13.4,3.3-27,5.8-41.1,5.8c-26.3,0-46.3-8.7-46.3-29.4c0-19.9,19.8-29.4,45.6-29.4c26.2,0,43.4,10.3,43.4,26.6
		C501.3,73.6,501.2,75.3,501.1,77.4z M482.9,66.7c-1.6-5-9.8-8.6-25.2-8.6c-13,0-21.8,3.6-25.3,8.6H482.9z"/>
	<path class="st0" d="M513.9,46.1h18.6c0,4.4-0.1,8.9-0.4,13.5c22.7-9.8,34.8-14.8,47-14.8c15.9,0,23,8.7,23,25.1v32.5h-19.2V71.1
		c0-7.8-3.2-11.1-10.5-11.1c-7,0-15.6,3.2-24.3,6.9l-15,6.5v29.1h-19.2V46.1z"/>
	<path class="st0" d="M182.3,0c-9.7,0-17.5,7.9-17.5,17.5s7.9,17.5,17.5,17.5c9.7,0,17.5-7.9,17.5-17.5S192,0,182.3,0z M182.3,24.3
		c-3.7,0-6.8-3-6.8-6.8s3-6.8,6.8-6.8c3.7,0,6.8,3,6.8,6.8S186.1,24.3,182.3,24.3z"/>
	<path class="st0" d="M298,45.7c-2.1-0.4-4.5-0.8-7.1-0.8c-10.7,0-18.3,4.7-36.1,18c0.2-6.2,0.4-10.5,0.4-16.7h-18.6v56.4h18.4V78.3
		l13-9.5c8.2-6.4,13.9-6.8,19.4-6.8c4.3,0,7.7,0.7,10.6,1.8V45.7z"/>
	<path class="st0" d="M189.6,44.9c-12.8,0-26.6,1.8-46.5,6v15.3l12.3-2.7c11.8-2.6,26.1-4.6,36.3-4.6c7.7,0,11.4,1.1,11.4,3.1
		c0,2-0.4,4.4-6.4,5.2l-33.6,4.1c-16.8,2-27.4,7.4-27.4,17.1c0,10,10.9,15.6,25.9,15.5c17.6-0.1,34.1-5.5,42.1-15.1
		c-0.2,3.8-0.4,9-0.6,13.8h17.7V63.7C220.8,50.6,211.8,44.9,189.6,44.9z M204.8,73.7c-2.6,7.7-21.1,15.3-38.8,16.7
		c-15.7,1.3-17.4-8-2.4-10L204.8,73.7z"/>
</g>
</svg>
