<?xml version="1.0" standalone="no"?>
<!DOCTYPE svg PUBLIC "-//W3C//DTD SVG 20010904//EN"
 "http://www.w3.org/TR/2001/REC-SVG-20010904/DTD/svg10.dtd">
<svg version="1.0" xmlns="http://www.w3.org/2000/svg"
 width="956.000000pt" height="557.000000pt" viewBox="0 0 956.000000 557.000000"
 preserveAspectRatio="xMidYMid meet">
<metadata>
Created by potrace 1.16, written by Peter Selinger 2001-2019
</metadata>
<g transform="translate(0.000000,557.000000) scale(0.100000,-0.100000)"
fill="#000000" stroke="none">
<path d="M5530 5503 c-895 -49 -1739 -219 -2548 -515 -1463 -533 -2548 -1422
-2852 -2336 -109 -327 -119 -648 -29 -954 60 -207 203 -454 366 -633 294 -322
761 -597 1318 -775 130 -41 474 -130 504 -130 13 0 111 360 490 1788 261 983
491 1840 513 1905 131 400 349 651 657 756 166 57 408 77 561 47 223 -44 366
-174 406 -370 44 -210 -72 -392 -267 -421 -103 -15 -234 51 -289 147 -50 89
-55 139 -29 288 21 121 21 130 5 154 -14 22 -24 26 -63 26 -132 0 -252 -140
-363 -420 -36 -92 -200 -662 -200 -696 0 -2 215 -5 478 -6 l479 -3 -207 -775
-207 -775 -261 -3 c-208 -2 -261 0 -257 10 9 26 335 1251 335 1260 0 4 -98 7
-217 6 l-218 -3 -398 -1498 c-220 -824 -397 -1500 -394 -1503 10 -10 324 -35
561 -44 274 -10 663 0 948 25 1417 124 2798 596 3798 1299 303 213 670 547
855 781 254 319 422 656 487 976 30 150 33 444 5 582 -42 206 -140 433 -264
607 -89 123 -300 336 -435 436 -598 444 -1427 699 -2478 764 -148 9 -648 11
-790 3z m-3310 -1383 c290 -30 486 -106 621 -240 88 -87 131 -164 155 -280 40
-191 -37 -470 -173 -620 -199 -219 -564 -338 -1095 -357 l-176 -6 -103 -361
c-56 -199 -108 -382 -116 -408 l-14 -48 -250 0 c-197 0 -250 3 -246 13 2 6
150 531 328 1165 l323 1152 326 0 c179 0 368 -5 420 -10z m5065 -751 c90 -27
143 -59 195 -115 65 -71 85 -123 85 -224 0 -77 -4 -92 -38 -164 -63 -132 -184
-236 -359 -307 -140 -58 -389 -109 -526 -109 -33 0 -72 -4 -86 -10 -25 -9 -26
-13 -26 -83 0 -141 44 -243 119 -274 71 -30 232 1 371 72 66 33 156 93 229
152 30 24 57 40 61 36 4 -4 26 -64 49 -133 l41 -125 -22 -18 c-59 -46 -191
-129 -266 -166 -233 -117 -443 -145 -660 -90 -205 52 -346 194 -398 399 -13
51 -15 95 -11 205 5 148 22 230 73 355 91 226 288 435 499 531 82 37 219 76
310 88 109 15 278 6 360 -20z m-1191 -36 c-36 -149 -165 -374 -322 -559 -37
-45 -141 -158 -230 -250 -88 -93 -204 -221 -256 -284 l-96 -115 369 -5 368 -5
-42 -155 -42 -155 -677 -3 -678 -2 7 32 c11 51 63 165 113 248 93 154 191 275
387 480 80 83 178 189 219 235 73 84 216 268 216 279 0 3 -142 6 -315 6 -173
0 -315 3 -315 6 0 3 16 64 35 135 19 71 35 132 35 134 0 3 277 5 615 5 l615 0
-6 -27z m2316 17 c0 -6 -16 -70 -35 -143 -19 -72 -35 -138 -35 -145 0 -8 17 8
39 35 83 106 189 175 316 208 78 20 236 20 304 -1 62 -18 142 -86 172 -147
108 -210 -129 -445 -339 -338 -90 46 -143 131 -143 228 l0 55 -32 -6 c-63 -12
-174 -76 -234 -134 -64 -60 -136 -165 -171 -245 -17 -39 -115 -393 -243 -879
l-10 -38 -260 0 -261 0 6 28 c4 15 97 363 207 773 109 411 199 750 199 753 0
3 117 6 260 6 168 0 260 -4 260 -10z"/>
<path d="M1897 3843 c-3 -5 -62 -210 -131 -458 -70 -247 -129 -459 -132 -469
-6 -18 -2 -19 97 -13 311 20 558 156 661 364 28 58 33 78 36 164 5 105 -10
171 -54 240 -47 75 -153 137 -280 164 -73 16 -190 20 -197 8z"/>
<path d="M6955 3151 c-91 -23 -191 -104 -265 -218 -49 -74 -105 -197 -117
-254 l-6 -32 73 7 c99 10 245 48 311 81 144 73 209 153 209 261 0 121 -84 184
-205 155z"/>
</g>
</svg>
